<svg xmlns="http://www.w3.org/2000/svg" xmlns:xlink="http://www.w3.org/1999/xlink" viewBox="0 0 332.73163 913.09042"><defs><linearGradient id="linear-gradient" x1="201.96658" y1="327.94446" x2="207.52214" y2="327.94446" gradientTransform="translate(47.34366 124.10074)" gradientUnits="userSpaceOnUse"><stop offset="0.42458"/><stop offset="1" stop-color="#00c5f2"/></linearGradient><linearGradient id="linear-gradient-2" x1="211.96658" y1="327.0278" x2="217.52214" y2="327.0278" gradientTransform="translate(38.26033 135.01741)" xlink:href="#linear-gradient"/><linearGradient id="linear-gradient-3" x1="222.13325" y1="327.0278" x2="227.6888" y2="327.0278" gradientTransform="translate(28.09366 145.18408)" xlink:href="#linear-gradient"/><linearGradient id="linear-gradient-4" x1="231.96658" y1="327.0278" x2="237.52214" y2="327.0278" gradientTransform="translate(18.26033 155.01741)" xlink:href="#linear-gradient"/><linearGradient id="linear-gradient-5" x1="241.38325" y1="327.0278" x2="246.9388" y2="327.0278" gradientTransform="translate(8.84366 164.43408)" xlink:href="#linear-gradient"/><linearGradient id="linear-gradient-6" x1="251.96658" y1="327.94446" x2="257.52214" y2="327.94446" gradientTransform="translate(-2.65634 174.10074)" xlink:href="#linear-gradient"/><linearGradient id="linear-gradient-7" x1="261.79991" y1="329.05558" x2="267.35547" y2="329.05558" gradientTransform="translate(-13.60078 182.82297)" xlink:href="#linear-gradient"/><linearGradient id="linear-gradient-8" x1="271.79991" y1="330.11113" x2="277.35547" y2="330.11113" gradientTransform="translate(-24.65634 191.76741)" xlink:href="#linear-gradient"/><linearGradient id="linear-gradient-9" x1="305.13326" y1="362.33195" x2="314.13326" y2="362.33195" gradientTransform="translate(580.03248 247.30085) rotate(90)" gradientUnits="userSpaceOnUse"><stop offset="0.245" stop-color="#001273" stop-opacity="0.39"/><stop offset="0.29011" stop-color="#002581" stop-opacity="0.47516"/><stop offset="0.38565" stop-color="#004a9a" stop-opacity="0.63433"/><stop offset="0.48245" stop-color="#0068af" stop-opacity="0.76627"/><stop offset="0.57924" stop-color="#007fbf" stop-opacity="0.86872"/><stop offset="0.67602" stop-color="#0090cb" stop-opacity="0.94174"/><stop offset="0.77286" stop-color="#009ad2" stop-opacity="0.98546"/><stop offset="0.87" stop-color="#009dd4"/></linearGradient><linearGradient id="linear-gradient-10" x1="317.91102" y1="362.29593" x2="326.91102" y2="362.29593" xlink:href="#linear-gradient-9"/><linearGradient id="linear-gradient-11" x1="330.91102" y1="361.87926" x2="339.91102" y2="361.87926" xlink:href="#linear-gradient-9"/><linearGradient id="linear-gradient-12" x1="343.99436" y1="361.13821" x2="352.99436" y2="361.13821" xlink:href="#linear-gradient-9"/><linearGradient id="linear-gradient-13" x1="356.16102" y1="361.13821" x2="365.16102" y2="361.13821" xlink:href="#linear-gradient-9"/><linearGradient id="linear-gradient-14" x1="368.57769" y1="361.13821" x2="377.57769" y2="361.13821" xlink:href="#linear-gradient-9"/><linearGradient id="linear-gradient-15" x1="380.74436" y1="361.13821" x2="389.74436" y2="361.13821" xlink:href="#linear-gradient-9"/><linearGradient id="linear-gradient-16" x1="392.91102" y1="361.50873" x2="401.91102" y2="361.50873" xlink:href="#linear-gradient-9"/><linearGradient id="linear-gradient-17" x1="202.1229" y1="162.9398" x2="207.67845" y2="162.9398" gradientTransform="matrix(1, 0, 0, -1, -124.25706, 615.14132)" xlink:href="#linear-gradient"/><linearGradient id="linear-gradient-18" x1="212.1229" y1="162.02313" x2="217.67845" y2="162.02313" gradientTransform="matrix(1, 0, 0, -1, -135.17373, 624.22466)" xlink:href="#linear-gradient"/><linearGradient id="linear-gradient-19" x1="222.28957" y1="162.02313" x2="227.84512" y2="162.02313" gradientTransform="matrix(1, 0, 0, -1, -145.3404, 634.39132)" xlink:href="#linear-gradient"/><linearGradient id="linear-gradient-20" x1="232.1229" y1="162.02313" x2="237.67845" y2="162.02313" gradientTransform="matrix(1, 0, 0, -1, -155.17373, 644.22466)" xlink:href="#linear-gradient"/><linearGradient id="linear-gradient-21" x1="241.53957" y1="162.02313" x2="247.09512" y2="162.02313" gradientTransform="matrix(1, 0, 0, -1, -164.5904, 653.64132)" xlink:href="#linear-gradient"/><linearGradient id="linear-gradient-22" x1="252.1229" y1="162.9398" x2="257.67845" y2="162.9398" gradientTransform="matrix(1, 0, 0, -1, -174.25706, 665.14132)" xlink:href="#linear-gradient"/><linearGradient id="linear-gradient-23" x1="261.95623" y1="164.05091" x2="267.51179" y2="164.05091" gradientTransform="matrix(1, 0, 0, -1, -182.97929, 676.08577)" xlink:href="#linear-gradient"/><linearGradient id="linear-gradient-24" x1="271.95623" y1="165.10646" x2="277.51179" y2="165.10646" gradientTransform="matrix(1, 0, 0, -1, -191.92373, 687.14132)" xlink:href="#linear-gradient"/><linearGradient id="linear-gradient-25" x1="305.28958" y1="197.32728" x2="314.28958" y2="197.32728" gradientTransform="matrix(0, 1, 1, 0, -82.29618, 247.30085)" xlink:href="#linear-gradient-9"/><linearGradient id="linear-gradient-26" x1="318.06734" y1="197.29126" x2="327.06734" y2="197.29126" gradientTransform="matrix(0, 1, 1, 0, -82.29618, 247.30085)" xlink:href="#linear-gradient-9"/><linearGradient id="linear-gradient-27" x1="331.06734" y1="196.87459" x2="340.06734" y2="196.87459" gradientTransform="matrix(0, 1, 1, 0, -82.29618, 247.30085)" xlink:href="#linear-gradient-9"/><linearGradient id="linear-gradient-28" x1="344.15068" y1="196.13354" x2="353.15068" y2="196.13354" gradientTransform="matrix(0, 1, 1, 0, -82.29618, 247.30085)" xlink:href="#linear-gradient-9"/><linearGradient id="linear-gradient-29" x1="356.31734" y1="196.13354" x2="365.31734" y2="196.13354" gradientTransform="matrix(0, 1, 1, 0, -82.29618, 247.30085)" xlink:href="#linear-gradient-9"/><linearGradient id="linear-gradient-30" x1="368.73401" y1="196.13354" x2="377.73401" y2="196.13354" gradientTransform="matrix(0, 1, 1, 0, -82.29618, 247.30085)" xlink:href="#linear-gradient-9"/><linearGradient id="linear-gradient-31" x1="380.90068" y1="196.13354" x2="389.90068" y2="196.13354" gradientTransform="matrix(0, 1, 1, 0, -82.29618, 247.30085)" xlink:href="#linear-gradient-9"/><linearGradient id="linear-gradient-32" x1="393.06734" y1="196.50407" x2="402.06734" y2="196.50407" gradientTransform="matrix(0, 1, 1, 0, -82.29618, 247.30085)" xlink:href="#linear-gradient-9"/></defs><g id="Layer_2" data-name="Layer 2"><g id="Layer_1-2" data-name="Layer 1"><path d="M206.76114,318.9908c17.07688,5.55441,61.99354,30.72108,64.41021,34.55441,6.02641,9.55912,8.3776,36.58161,23,56.16665,2.75819,3.69428,4.43606,134.08364-1.59562,185.66476-6.62659,56.66859-16.78366,126.25441-21.51548,126.22414-52.11111-.33333-46.25787.41047-72.966.41047Z" fill="#333535"/><path d="M214.6158,710.15632c0-2.25,45.22222,42.77778,45.03747,47.15809-.07266,1.72262.01152,5.953.011,10.17524-.00028,2.31044-46.71514-39.66666-47.27778-44.44444C212.38649,723.04521,214.6158,715.23965,214.6158,710.15632Z" fill="#333535"/><path d="M191.94913,203.60076c0,6.88889,54.44444,4.77778,63,7.77778,0,0,.21066-9.37-.84453-10.5449-4.59992-5.12176-62.04436-8.679-62.04436-6.344C192.06024,198.9341,191.94913,202.54983,191.94913,203.60076Z" fill="#1d1e1e"/><path d="M223.314,803.823c2.44065-.69445,18.95934,3.18574,22.024,3.68055,1.70211.27482,1.33333,11.25.41666,11.04167-1.79511-.408-21.54166-4.41667-23.79166-7.29167C221.963,811.25354,222.83915,803.95811,223.314,803.823Z" fill="#333535"/><path d="M193.00468,235.79521c-.08333-9.41667,56.41667-27.33333,56.08334-31.08333-.28927-3.25422-57.5-11.197-57.5-13.58334V179.04521c0-1.83333,73.91666,13.75,73.91666,17.33333,0,5.08334-.16666,9.98577-.16666,13.83334,0,3.12381-71.33334,36.73188-71.33334,36.08333C194.00468,238.46188,193.09017,245.45532,193.00468,235.79521Z" fill="#333535"/><path d="M191.588,170.29521c0-2.25,73.51677,7.41667,73.51677,10.922,0,1.72415.011,2.55024.011,6.953,0,2.65278-65.11112-9.84722-73.52778-9.56945Z" fill="#333535"/><path d="M205.57413,758.323c-1.35577,3.58333,36.43055,25.47222,36.43055,28.38889,0,3.16666-13.625.75-14.33333,2.33333-2.10989,4.71623-3.5,12.66667-3.5,12.66667,3.04167.70833,35.30847,1.426,35.29167-1.20834-.03242-5.08323.20125-11.06876.20125-14.91633,0-2.45867-51.1443-40.03439-51.38181-39.43089C205.7408,752.61465,207.83035,752.35971,205.57413,758.323Z" fill="#333535"/><path d="M166.48012.02259c18.8889-.88888,79.15919,24.69529,105.02456,33.356,8.63349,2.8908,44.04418,17.13624,47.33335,17.44445,5.92884.55555,9.73446,61.90923,2,79.22222-3.13278,7.0125-41.22223-21.44445-60.8889-40.22222-14.56226-13.90408-49.59-23.499-62.44445-27.44445-11.22222-3.44444-30.74037,3.18814-30.74037,3.18814Z" fill="#00c5f2"/><path d="M180.6158,24.9176c22.88888-7.33333,88.22222,54.79428,141.33333,52.97388,2.28092-.07818,5.66667,49.04262-1.55556,52.59817-13.76961,6.77889-62.22222-41.55555-70.44444-44.88889-39.363-15.958-46.90385-24.68253-62.68162-24.23809C175.89272,61.68309,169.78092,28.389,180.6158,24.9176Z" fill="#facbef"/><path d="M181.39356,37.20133C204.28245,29.868,269.61578,91.9956,322.72689,90.1752c2.28092-.07818,4.88891,36.7589-2.33332,40.31445-13.76961,6.77889-62.22222-41.55555-70.44444-44.88889-39.363-15.958-46.90385-24.68253-62.68162-24.23809C175.89272,61.68309,170.55868,40.67269,181.39356,37.20133Z" fill="#f7b4ea"/><path d="M181.39356,50.21188c22.88889-7.33334,88.22222,54.79427,141.33333,52.97387,2.28092-.07818,4.88891,23.74835-2.33332,27.3039-13.76961,6.77889-62.22222-41.55555-70.44444-44.88889-39.363-15.958-46.90385-24.68253-62.68162-24.23809C175.89272,61.68309,170.55868,53.68324,181.39356,50.21188Z" fill="#f7a3ea"/><path id="body" d="M166.838,10.40549c0-1.1161,11.59062,3.4846,15.11113,11.19528a16.59234,16.59234,0,0,1,1.11109,3.33333c7.33334,35.77777,10,175.55544,10,175.55555,2.88891,67.1111,9.11111,87.55556,20.22223,153.33333.68432,4.05121,3.32019,18.15982,6.255,20.203,6.41168,4.46369,49.57712,9.51938,58.745,21.57477,14.11111,18.55557-3.93152,174.68355-11.27778,203.27779C242.05791,695.98,234.7108,796.48961,212.838,834.48967l-47.33336-.08416C165.50467,749.96105,166.838,55.01661,166.838,10.40549Z" fill="#00c5f2"/><path d="M250.3983,170.48965h94.5A14.66667,14.66667,0,0,1,359.565,185.15632V213.096a13.61584,13.61584,0,0,1-13.61584,13.61584H257.78719a17.11111,17.11111,0,0,1-17.11111-17.11111V180.21188A9.72222,9.72222,0,0,1,250.3983,170.48965Z" transform="translate(498.72128 -101.51976) rotate(90)" fill="#231f20" stroke="#231f20" stroke-miterlimit="10"/><path d="M246.3126,749.8484h94.5a14.66667,14.66667,0,0,1,14.66667,14.66667v44.11111A13.61584,13.61584,0,0,1,341.86343,822.242H253.70149a17.11111,17.11111,0,0,1-17.11111-17.11111V759.57062A9.72222,9.72222,0,0,1,246.3126,749.8484Z" transform="translate(1082.08003 490.01038) rotate(90)" fill="#231f20" stroke="#231f20" stroke-miterlimit="10"/><path d="M165.50467,912.9341V834.48967h102.3834l1.15639,16.77776c-.11564,37.33333,6.82268,47.55556,6.01321,61.66667Z" fill="#facbef"/><path d="M252.06023,181.323c0-10.38889,12.16668-19.64725,12.16668-22.77777,0-3.88436-.72223-11.72223,1.05555-12.94444.64486-.44335,1.83334-1.959,1.83334-1.11112,0,1.16667.11111,4.38622.11111,8.55556,0,8.50816,20.53028,15.52707,24.72223,18.33333,2.57263,1.72223,1.1901,15.34375,1.1901,24.05555,0,8.55907-15.63648.85585-20.9679,7.27779-2.44443,2.94444-1.77167,30.71111-1.77167,30.71111-4.77777.16665-6.06164-4.4889-8.395-4.6,0,0-.055,2.11728-.055,7.05536,0,2.22223,10.77719,18.61133,9.22162,21.50021-.53332.99045-11.61111-12.33334-11.83331-17.11111h-5.88889c.05554-3.72223-.16668-12.25882-.16668-18.16667C253.28246,203.65632,252.06023,195.086,252.06023,181.323Z"/><path d="M318.838,50.823c1.661.00056,9.3936,6.22222,9.3936,9.55555,0,28.59383,5.26962,49.4475,1.27305,50.88889-6.77777,2.44445-3.91666,17.27778-8.0931,18.33538C319.13424,130.1795,316.58963,50.82222,318.838,50.823Z"/><path d="M253.54634,733.9619c-.443,0-3.18646,1.95831-3.18646,6.089,0,10.97036-4.71325,14.704-4.8552,19.786-.20832,7.45833,2.625,11.29166,2.70834,15.45833.03992,1.99624,7.0694,26.111,7.06944,26.11108a13.7611,13.7611,0,0,1,.13888,3.80561c0,.94439-11.91666-.83338-12.16666,1.45831a99.14441,99.14441,0,0,0,0,11.625c.04167,1.75,11.041.95833,15.91667.95833,1.12489,0,2.00693-66.42359.11111-68.31942-.59511-.5951-4.98612-1.97224-4.98612-3.13891C254.29634,742.5869,254.75468,733.9619,253.54634,733.9619Z"/><path d="M273.22424,391.29313c4.23878,1.96041,8.486,8.22394,10.9471,13.80762,5.16669,11.72223,11.9245,56.83335,11.22223,85.61113-.51123,20.94964-.99492,32.80072-5.88889,49.22222-21.72041,72.882-20,126.55555-49.58334,131.37588,0,0,31.76056-129.96472,37.80557-162.20923C282.66942,482.73716,272.74991,391.07375,273.22424,391.29313Z" fill="#facbef"/><rect x="249.31024" y="440.98965" width="5.55556" height="22.11111" transform="translate(704.13323 199.95719) rotate(90)" fill="url(#linear-gradient)"/><rect x="250.22691" y="450.98965" width="5.55556" height="22.11111" transform="translate(715.04989 209.04052) rotate(90)" fill="url(#linear-gradient-2)"/><rect x="250.22691" y="461.15632" width="5.55556" height="22.11111" transform="translate(725.21656 219.20719) rotate(90)" fill="url(#linear-gradient-3)"/><rect x="250.22691" y="470.98965" width="5.55556" height="22.11111" transform="translate(735.04989 229.04052) rotate(90)" fill="url(#linear-gradient-4)"/><rect x="250.22691" y="480.40632" width="5.55556" height="22.11111" transform="translate(744.46656 238.45719) rotate(90)" fill="url(#linear-gradient-5)"/><rect x="249.31024" y="490.98965" width="5.55556" height="22.11111" transform="translate(754.13323 249.95719) rotate(90)" fill="url(#linear-gradient-6)"/><rect x="248.19913" y="500.82299" width="5.55556" height="22.11111" transform="translate(762.85545 260.90163) rotate(90)" fill="url(#linear-gradient-7)"/><rect x="247.14357" y="510.82299" width="5.55556" height="22.11111" transform="translate(771.79989 271.95719) rotate(90)" fill="url(#linear-gradient-8)"/><path d="M166.17134,336.15632c10,0,21.44147,3.78083,27,10.55554,2.66525,3.24842,1,18.83335,1,20.91668,0,0,21.11647,26.52637,23,34.1389,2.66668,10.77777,12.16879,17.39291,14.08334,28.02777,11.41667,63.41667-3.5,67.62579-3.5,114.25,0,8.5,4.84671,41.53161,4.84671,84.5,0,41.5-15.11856,85.80414-18.68005,93.466-6.83331,14.70069-5.91666,64.70069-7.75,64.70069H165.67118Z" fill="#21accc"/><path d="M166.17134,467.71188V336.15632h10.3139c3.6897,0,18.01944,6.88889,18.01944,14.33333v97.66667c0,10.75556-8.49488,19.55556-18.87751,19.55556Z"/><polygon points="209.998 561.434 209.998 552.434 224.421 552.434 225.403 561.434 209.998 561.434" fill="url(#linear-gradient-9)"/><polygon points="208.718 574.212 208.718 565.212 225.403 565.212 226.755 574.212 208.718 574.212" fill="url(#linear-gradient-10)"/><polygon points="207.784 587.212 207.784 578.212 227.171 578.212 228.523 587.212 207.784 587.212" fill="url(#linear-gradient-11)"/><polygon points="207.367 600.295 207.367 591.295 229.07 591.295 230.421 600.295 207.367 600.295" fill="url(#linear-gradient-12)"/><polyline points="206.788 603.462 231 603.462 231 612.462 206.788 612.462" fill="url(#linear-gradient-13)"/><polyline points="206.788 615.879 231 615.879 231 624.879 206.788 624.879" fill="url(#linear-gradient-14)"/><polyline points="206.788 628.045 231 628.045 231 637.045 206.788 637.045" fill="url(#linear-gradient-15)"/><polyline points="206.047 640.212 231 640.212 229.671 649.212 206.047 649.212" fill="url(#linear-gradient-16)"/><path d="M166.338,299.37855c2.322-.15179,3.83331,5.05554,3.83331,14.33331,0,7.83912-1.6405,13.60092-1.55554,15.22223,1.33333,25.44445,44.77777,40.55556,51.61111,76.33335.63577,3.32871.16666,66.94444-1.55557,79.27777l-5.66666-.16669c-2.5-5.11108,1.94446-71.77777-.38888-78.88885-6.79532-20.70957-26.33334-34-46.44446-34.94446Z" fill="#0066b8"/><path d="M125.97049,319.14712c-17.07688,5.55441-61.99354,30.72107-64.41021,34.55441-6.0264,9.55912-8.3776,36.58161-23,56.16665-2.75819,3.69428-4.43606,134.08363,1.59563,185.66476,6.62658,56.66859,16.78365,126.25441,21.51547,126.22414,52.11111-.33333,46.25787.41046,72.966.41046Z" fill="#333535"/><path d="M118.11584,710.31264c0-2.25-45.22223,42.77778-45.03747,47.15809.07265,1.72262-.01153,5.953-.011,10.17524.00028,2.31044,46.71514-39.66666,47.27778-44.44444C120.34514,723.20153,118.11584,715.396,118.11584,710.31264Z" fill="#333535"/><path d="M140.7825,203.75708c0,6.88889-54.44444,4.77778-63,7.77778,0,0-.21066-9.37.84454-10.5449,4.59991-5.12177,62.04435-8.679,62.04435-6.344C140.67139,199.09042,140.7825,202.70615,140.7825,203.75708Z" fill="#1d1e1e"/><path d="M109.4176,803.97931c-2.44065-.69445-18.95933,3.18574-22.024,3.68055-1.70211.27482-1.33333,11.25-.41666,11.04167,1.79511-.408,21.54166-4.41667,23.79166-7.29167C110.76861,811.40986,109.89249,804.11443,109.4176,803.97931Z" fill="#333535"/><path d="M139.72695,235.95153c.08333-9.41667-56.41667-27.33334-56.08334-31.08334.28927-3.25421,57.5-11.197,57.5-13.58333V179.20153c0-1.83334-73.91666,13.75-73.91666,17.33333,0,5.08333.16666,9.98576.16666,13.83333,0,3.12382,71.33334,36.73189,71.33334,36.08334C138.72695,238.61819,139.64146,245.61164,139.72695,235.95153Z" fill="#333535"/><path d="M141.14361,170.45153c0-2.25-73.51677,7.41666-73.51677,10.922,0,1.72415-.011,2.55024-.011,6.953,0,2.65278,65.11111-9.84722,73.52777-9.56945Z" fill="#333535"/><path d="M127.1575,758.47931c1.35577,3.58333-36.43055,25.47222-36.43055,28.38888,0,3.16667,13.625.75,14.33333,2.33334,2.10989,4.71623,3.5,12.66666,3.5,12.66666-3.04167.70834-35.30847,1.426-35.29167-1.20833.03242-5.08323-.20125-11.06876-.20125-14.91633,0-2.45867,51.1443-40.03439,51.38181-39.43089C126.99084,752.771,124.90128,752.516,127.1575,758.47931Z" fill="#333535"/><path d="M166.25151.17891C147.36261-.71,87.09232,24.8742,61.227,33.53486,52.59346,36.42566,17.18278,50.6711,13.8936,50.97931c-5.92884.55555-9.73446,61.90923-2,79.22222,3.13279,7.01249,41.22224-21.44445,60.8889-40.22222,14.56226-13.90408,49.59-23.499,62.44445-27.44445,11.22222-3.44444,30.74037,3.18814,30.74037,3.18814Z" fill="#00c5f2"/><path d="M152.11584,25.07392C129.22695,17.74059,63.89361,79.86819,10.7825,78.0478c-2.28091-.07818-5.66666,49.04262,1.55556,52.59817,13.76961,6.77889,62.22222-41.55555,70.44444-44.88889,39.363-15.958,46.90385-24.68253,62.68163-24.23809C156.83891,61.83941,162.95071,28.54529,152.11584,25.07392Z" fill="#facbef"/><path d="M151.33807,37.35765C128.44918,30.02431,63.11585,92.15192,10.00474,90.33152c-2.28092-.07818-4.8889,36.7589,2.33332,40.31445,13.76961,6.77889,62.22222-41.55555,70.44444-44.88889,39.363-15.958,46.90385-24.68253,62.68163-24.23809C156.83891,61.83941,162.17295,40.829,151.33807,37.35765Z" fill="#f7b4ea"/><path d="M151.33807,50.36819c-22.88889-7.33333-88.22222,54.79427-141.33333,52.97388-2.28092-.07818-4.8889,23.74835,2.33332,27.3039,13.76961,6.77889,62.22222-41.55555,70.44444-44.88889,39.363-15.958,46.90385-24.68253,62.68163-24.23809C156.83891,61.83941,162.17295,53.83956,151.33807,50.36819Z" fill="#f7a3ea"/><path id="body-2" data-name="body" d="M165.89362,10.56181c0-1.1161-11.59062,3.4846-15.11113,11.19528a16.592,16.592,0,0,0-1.11108,3.33333c-7.33335,35.77777-10,175.55544-10,175.55555-2.88892,67.1111-9.11112,87.55556-20.22223,153.33333-.68433,4.05121-3.32019,18.15982-6.255,20.203-6.41168,4.46369-49.57712,9.51938-58.745,21.57477C40.33806,414.31264,58.38069,570.44062,65.727,599.03486,90.67372,696.13636,98.02083,796.64592,119.8936,834.646l47.33336-.08416C167.227,750.11737,165.89362,55.17293,165.89362,10.56181Z" fill="#00c5f2"/><path d="M-9.72222,170.646H78.43972a13.61584,13.61584,0,0,1,13.61584,13.61584v27.93972a14.66667,14.66667,0,0,1-14.66667,14.66667h-94.5a9.72222,9.72222,0,0,1-9.72222-9.72222V187.75708A17.11111,17.11111,0,0,1-9.72222,170.646Z" transform="translate(231.36819 166.14597) rotate(90)" fill="#231f20" stroke="#231f20" stroke-miterlimit="10"/><path d="M-5.63653,750.00472H82.52542a13.61584,13.61584,0,0,1,13.61584,13.61584v44.11111a14.66667,14.66667,0,0,1-14.66667,14.66667h-94.5a9.72222,9.72222,0,0,1-9.72222-9.72222V767.11583A17.11111,17.11111,0,0,1-5.63653,750.00472Z" transform="translate(822.89833 749.50472) rotate(90)" fill="#231f20" stroke="#231f20" stroke-miterlimit="10"/><path d="M167.227,913.09042V834.646H64.84356l-1.15639,16.77776c.11564,37.33333-6.82268,47.55556-6.01321,61.66667Z" fill="#facbef"/><path d="M80.67141,181.4793c0-10.38889-12.16669-19.64725-12.16669-22.77777,0-3.88436.72223-11.72223-1.05554-12.94444-.64487-.44335-1.83335-1.959-1.83335-1.11112,0,1.16667-.11111,4.38622-.11111,8.55556,0,8.50816-20.53028,15.52707-24.72223,18.33333-2.57263,1.72223-1.19009,15.34375-1.19009,24.05555,0,8.55907,15.63647.85585,20.96789,7.27779,2.44443,2.94444,1.77167,30.7111,1.77167,30.7111,4.77777.16666,6.06164-4.48889,8.395-4.6,0,0,.055,2.11728.055,7.05536,0,2.22223-10.77719,18.61133-9.22162,21.50021.53333.99045,11.61112-12.33334,11.83331-17.11111h5.88889c-.05554-3.72223.16669-12.25882.16669-18.16667C79.44918,203.81264,80.67141,195.24236,80.67141,181.4793Z"/><path d="M13.8936,50.97931c-1.661.00056-9.3936,6.22222-9.3936,9.55555,0,28.59383-5.26962,49.4475-1.273,50.88889,6.77778,2.44444,3.91666,17.27778,8.09311,18.33538C13.59739,130.33582,16.142,50.97854,13.8936,50.97931Z"/><path d="M79.18529,734.11821c.443,0,3.18646,1.95832,3.18646,6.089,0,10.97036,4.71325,14.704,4.8552,19.786.20832,7.45834-2.625,11.29167-2.70834,15.45834-.03992,1.99624-7.0694,26.111-7.06943,26.11108a13.76061,13.76061,0,0,0-.13889,3.8056c0,.9444,11.91666-.83337,12.16666,1.45832a99.14222,99.14222,0,0,1,0,11.625c-.04167,1.75-11.041.95833-15.91667.95833-1.12489,0-2.00693-66.42359-.1111-68.31942.59511-.59511,4.98611-1.97225,4.98611-3.13891C78.43529,742.74321,77.977,734.11821,79.18529,734.11821Z"/><path d="M59.50739,391.44945c-4.23878,1.96041-8.486,8.22394-10.9471,13.80762-5.16669,11.72223-11.9245,56.83335-11.22223,85.61112.51123,20.94965.99492,32.80072,5.88889,49.22223,21.72042,72.882,20,126.55555,49.58334,131.37588,0,0-31.76056-129.96472-37.80557-162.20923C50.06221,482.89348,59.98172,391.23007,59.50739,391.44945Z" fill="#facbef"/><rect x="77.86584" y="441.14597" width="5.55556" height="22.11111" transform="translate(532.84514 371.55791) rotate(90)" fill="url(#linear-gradient-17)"/><rect x="76.94917" y="451.14597" width="5.55556" height="22.11111" transform="translate(541.92848 382.47458) rotate(90)" fill="url(#linear-gradient-18)"/><rect x="76.94917" y="461.31264" width="5.55556" height="22.11111" transform="translate(552.09514 392.64125) rotate(90)" fill="url(#linear-gradient-19)"/><rect x="76.94917" y="471.14597" width="5.55556" height="22.11111" transform="translate(561.92848 402.47458) rotate(90)" fill="url(#linear-gradient-20)"/><rect x="76.94917" y="480.56264" width="5.55556" height="22.11111" transform="translate(571.34514 411.89125) rotate(90)" fill="url(#linear-gradient-21)"/><rect x="77.86584" y="491.14597" width="5.55556" height="22.11111" transform="translate(582.84514 421.55791) rotate(90)" fill="url(#linear-gradient-22)"/><rect x="78.97695" y="500.97931" width="5.55556" height="22.11111" transform="translate(593.78959 430.28014) rotate(90)" fill="url(#linear-gradient-23)"/><rect x="80.0325" y="510.97931" width="5.55556" height="22.11111" transform="translate(604.84514 439.22458) rotate(90)" fill="url(#linear-gradient-24)"/><path d="M166.56029,336.31264c-10,0-21.44147,3.78083-27,10.55554-2.66525,3.24842-1,18.83335-1,20.91668,0,0-21.11647,26.52637-23,34.1389-2.66668,10.77777-12.16879,17.39291-14.08334,28.02777-11.41667,63.41666,3.5,67.62579,3.5,114.25,0,8.5-4.84671,41.53161-4.84671,84.5,0,41.5,15.11856,85.80414,18.68,93.466,6.83331,14.70068,5.91666,64.70068,7.75,64.70068h40.50017Z" fill="#21accc"/><path d="M166.56029,467.86819V336.31264h-10.3139c-3.6897,0-18.01944,6.88889-18.01944,14.33333v97.66667c0,10.75555,8.49488,19.55555,18.87751,19.55555Z"/><polygon points="122.734 561.59 122.734 552.59 108.31 552.59 107.328 561.59 122.734 561.59" fill="url(#linear-gradient-25)"/><polygon points="124.013 574.368 124.013 565.368 107.328 565.368 105.977 574.368 124.013 574.368" fill="url(#linear-gradient-26)"/><polygon points="124.948 587.368 124.948 578.368 105.56 578.368 104.209 587.368 124.948 587.368" fill="url(#linear-gradient-27)"/><polygon points="125.364 600.452 125.364 591.452 103.662 591.452 102.31 600.452 125.364 600.452" fill="url(#linear-gradient-28)"/><polyline points="125.943 603.618 101.731 603.618 101.731 612.618 125.943 612.618" fill="url(#linear-gradient-29)"/><polyline points="125.943 616.035 101.731 616.035 101.731 625.035 125.943 625.035" fill="url(#linear-gradient-30)"/><polyline points="125.943 628.202 101.731 628.202 101.731 637.202 125.943 637.202" fill="url(#linear-gradient-31)"/><polyline points="126.684 640.368 101.731 640.368 103.06 649.368 126.684 649.368" fill="url(#linear-gradient-32)"/><path d="M166.3936,299.53487c-2.322-.15179-3.83331,5.05554-3.83331,14.33331,0,7.83912,1.6405,13.60092,1.55554,15.22223-1.33333,25.44445-44.77777,40.55556-51.61111,76.33335-.63577,3.32871-.16666,66.94443,1.55557,79.27777l5.66666-.16669c2.5-5.11108-1.94446-71.77777.38888-78.88885,6.79532-20.70957,26.33335-34,46.44446-34.94446Z" fill="#0066b8"/><polygon points="249.505 848.267 249.505 910.267 181.06 910.267 177.06 896.49 174.616 910.267 151.727 910.267 149.949 897.601 145.282 910.267 82.838 910.267 82.838 882.712 94.838 882.712 94.838 846.934 124.171 846.934 124.171 882.267 137.727 846.934 160.838 846.934 165.616 862.045 167.282 846.934 188.838 846.934 194.338 862.045 205.538 848.267 249.505 848.267" fill="#fff"/><path d="M243.07426,853.37852v48.5556c-8.52682,0-22.7918-.11114-29.7918-.11114-4.0589,0-10.69443-5.69444-10.69443-13.27777,0-8.83333,5.58332-7.66667,5.58332-9.58333,0-2-9-.33334-9-12.75,0-10.08511,8.41667-12.83336,13.21514-12.83336Z" fill="#00c5f2"/><path d="M219.00468,862.12854H227.088a0,0,0,0,1,0,0v7.95833a2.79167,2.79167,0,0,1-2.79167,2.79167h-2.5a2.79167,2.79167,0,0,1-2.79167-2.79167v-7.95833A0,0,0,0,1,219.00468,862.12854Z" transform="translate(1090.54989 644.45719) rotate(90)" fill="#fff"/><path d="M220.18324,884.18209h8.08333a0,0,0,0,1,0,0v5.60123a2.79167,2.79167,0,0,1-2.79167,2.79167h-2.5a2.79167,2.79167,0,0,1-2.79167-2.79167v-5.60123A0,0,0,0,1,220.18324,884.18209Z" transform="translate(1112.60344 664.15364) rotate(90)" fill="#fff"/><polygon points="203.505 900.712 185.505 853.379 171.505 853.379 165.338 877.045 156.588 853.379 142.338 853.379 123.171 900.712 142.171 900.712 150.823 881.177 155.921 900.712 170.505 900.712 176.558 881.177 184.338 900.712 203.505 900.712" fill="#00c5f2"/><polygon points="118.338 852.379 99.449 852.379 99.902 887.879 89.171 887.85 89.171 901.212 120.838 901.212 126.671 887.434 118.509 887.434 118.338 852.379" fill="#00c5f2"/><path d="M205.5385,848.26744c-5.75448,0-12.30063,10.22851-11.36716,16.02777a9.20894,9.20894,0,0,0,1.66669,3.91669" fill="#fff"/></g></g></svg>