<svg xmlns="http://www.w3.org/2000/svg" viewBox="0 0 326.67612 912.9115"><g id="Layer_2" data-name="Layer 2"><g id="Layer_1-2" data-name="Layer 1"><path d="M200.70564,318.9682c17.07687,5.55441,61.99354,30.72108,64.4102,34.55441,6.02641,9.55913,8.3776,36.58162,23,56.16666,2.75819,3.69428,4.43606,134.08363-1.59562,185.66476-6.62659,56.66858-16.78366,126.25441-21.51548,126.22414-52.11111-.33333-46.25787.41046-72.966.41046Z" fill="#333535"/><path d="M208.56029,710.13373c0-2.25,45.22222,42.77777,45.03747,47.15809-.07266,1.72262.01153,5.953.011,10.17524-.00028,2.31043-46.71514-39.66667-47.27777-44.44445C206.331,723.02261,208.56029,715.21706,208.56029,710.13373Z" fill="#333535"/><path d="M185.89362,203.57817c0,6.88889,54.44445,4.77778,63,7.77778,0,0,.21066-9.37-.84453-10.54491-4.59991-5.12176-62.04436-8.679-62.04436-6.344C186.00473,198.9115,185.89362,202.52724,185.89362,203.57817Z" fill="#1d1e1e"/><path d="M217.25852,803.80039c2.44066-.69444,18.95934,3.18575,22.024,3.68056,1.70211.27482,1.33333,11.25.41667,11.04166-1.79512-.408-21.54167-4.41666-23.79167-7.29166C215.90751,811.231,216.78364,803.93551,217.25852,803.80039Z" fill="#333535"/><path d="M186.94918,235.77261c-.08334-9.41666,56.41666-27.33333,56.08333-31.08333-.28926-3.25422-57.5-11.197-57.5-13.58333V179.02261c0-1.83333,73.91667,13.75,73.91667,17.33333,0,5.08334-.16667,9.98577-.16667,13.83334,0,3.12381-71.33333,36.73188-71.33333,36.08333C187.94918,238.43928,187.03466,245.43273,186.94918,235.77261Z" fill="#333535"/><path d="M185.53251,170.27261c0-2.25,73.51677,7.41667,73.51677,10.922,0,1.72415.011,2.55024.011,6.953,0,2.65278-65.11111-9.84722-73.52778-9.56944Z" fill="#333535"/><path d="M199.51862,758.30039c-1.35577,3.58334,36.43056,25.47222,36.43056,28.38889,0,3.16667-13.625.75-14.33334,2.33333-2.10989,4.71623-3.5,12.66667-3.5,12.66667,3.04167.70833,35.30847,1.426,35.29167-1.20833-.03242-5.08324.20125-11.06876.20125-14.91633,0-2.45867-51.1443-40.03439-51.38181-39.43089C199.68529,752.59206,201.77485,752.33712,199.51862,758.30039Z" fill="#333535"/><path d="M163.11583.02261c18.8889-.88888,76.468,24.67268,102.33335,33.33334,8.63348,2.8908,44.04417,17.13623,47.33334,17.44444,5.92884.55556,9.73447,61.90924,2,79.22222-3.13278,7.0125-41.22223-21.44444-60.8889-40.22222-14.56226-13.90408-49.59-23.499-62.44444-27.44444-11.22223-3.44445-28.95091,3.32795-28.95091,3.32795Z" fill="#00c5f2"/><path d="M174.56029,24.895c22.88889-7.33333,88.22222,54.79427,141.33333,52.97388,2.28092-.07818,5.66667,49.04261-1.55555,52.59817-13.76962,6.77888-62.22223-41.55556-70.44445-44.88889-39.363-15.958-46.90384-24.68254-62.68162-24.23809C169.83722,61.66049,163.72541,28.36638,174.56029,24.895Z" fill="#facbef"/><path id="body" d="M162.56029,10.46706c0-1.1161,9.81284,3.40044,13.33334,11.11111a16.59234,16.59234,0,0,1,1.11109,3.33333c7.33334,35.77778,10,175.55545,10,175.55556,2.88891,67.1111,9.11111,87.55555,20.22223,153.33332.68432,4.05121,3.32019,18.15983,6.255,20.203,6.41168,4.46368,49.57712,9.51938,58.745,21.57477,14.11111,18.55557,20.51526,110.082,13.169,138.67627-24.94677,97.1015-56.74066,262.21258-78.61343,300.21264H161.22695C161.22695,750.02261,162.56029,55.07817,162.56029,10.46706Z" fill="#00c5f2"/><path d="M244.34279,170.46706h94.5a14.66667,14.66667,0,0,1,14.66667,14.66667v27.93972a13.61584,13.61584,0,0,1-13.61584,13.61584H251.73168a17.11111,17.11111,0,0,1-17.11111-17.11111V180.18928A9.72222,9.72222,0,0,1,244.34279,170.46706Z" transform="translate(492.64318 -95.48684) rotate(90)" fill="#231f20" stroke="#231f20" stroke-miterlimit="10"/><path d="M240.25709,749.82581h94.5a14.66667,14.66667,0,0,1,14.66667,14.66667v44.11111a13.61584,13.61584,0,0,1-13.61584,13.61584H247.646a17.11111,17.11111,0,0,1-17.11111-17.11111V759.548A9.72222,9.72222,0,0,1,240.25709,749.82581Z" transform="translate(1076.00193 496.0433) rotate(90)" fill="#231f20" stroke="#231f20" stroke-miterlimit="10"/><path d="M161.22695,912.9115V834.46707H261.83256l1.15639,16.77777c-.11564,37.33333,6.82268,47.55555,6.01321,61.66666Z" fill="#facbef"/><path d="M246.00472,181.30038c0-10.38888,12.16669-19.64724,12.16669-22.77777,0-3.88435-.72223-11.72223,1.05554-12.94444.64486-.44334,1.83334-1.959,1.83334-1.11111,0,1.16667.11112,4.38621.11112,8.55555,0,8.50817,20.53027,15.52707,24.72222,18.33333,2.57264,1.72223,1.1901,15.34375,1.1901,24.05556,0,8.55907-15.63648.85585-20.9679,7.27779-2.44442,2.94444-1.77166,30.7111-1.77166,30.7111-4.77778.16666-6.06165-4.48889-8.395-4.6,0,0-.055,2.11728-.055,7.05536,0,2.22223,10.7772,18.61133,9.22162,21.50022-.53332.99045-11.61111-12.33335-11.83331-17.11112h-5.88889c.05555-3.72223-.16668-12.25882-.16668-18.16667C247.227,203.63373,246.00472,195.06345,246.00472,181.30038Z"/><path d="M312.78252,50.80039c1.661.00057,9.3936,6.22222,9.3936,9.55556,0,28.59382,5.26963,49.4475,1.27306,50.88889-6.77778,2.44444-3.91667,17.27777-8.09311,18.33538C313.07873,130.15691,310.53412,50.79962,312.78252,50.80039Z"/><path d="M247.49083,733.9393c-.443,0-3.18646,1.95831-3.18646,6.089,0,10.97035-4.71325,14.704-4.85519,19.786-.20833,7.45833,2.625,11.29167,2.70833,15.45833.03992,1.99625,7.06941,26.111,7.06944,26.11109a13.761,13.761,0,0,1,.13888,3.8056c0,.9444-11.91665-.83337-12.16665,1.45831a99.14,99.14,0,0,0,0,11.625c.04166,1.75,11.04095.95834,15.91666.95834,1.12489,0,2.00693-66.4236.11111-68.31942-.59511-.59511-4.98612-1.97225-4.98612-3.13892C248.24083,742.5643,248.69918,733.9393,247.49083,733.9393Z"/><path d="M125.97049,318.9682c-17.07688,5.55441-61.99354,30.72108-64.41021,34.55441-6.0264,9.55913-8.3776,36.58162-23,56.16666C35.8021,413.38355,34.12423,543.7729,40.15592,595.354c6.62658,56.66858,16.78365,126.25441,21.51547,126.22414,52.11111-.33333,46.25787.41046,72.966.41046Z" fill="#333535"/><path d="M118.11584,710.13373c0-2.25-45.22223,42.77777-45.03747,47.15809.07265,1.72262-.01153,5.953-.011,10.17524.00028,2.31043,46.71514-39.66667,47.27778-44.44445C120.34514,723.02261,118.11584,715.21706,118.11584,710.13373Z" fill="#333535"/><path d="M140.7825,203.57817c0,6.88889-54.44444,4.77778-63,7.77778,0,0-.21066-9.37.84454-10.54491,4.59991-5.12176,62.04435-8.679,62.04435-6.344C140.67139,198.9115,140.7825,202.52724,140.7825,203.57817Z" fill="#1d1e1e"/><path d="M109.4176,803.80039c-2.44065-.69444-18.95933,3.18575-22.024,3.68056-1.70211.27482-1.33333,11.25-.41666,11.04166,1.79511-.408,21.54166-4.41666,23.79166-7.29166C110.76861,811.231,109.89249,803.93551,109.4176,803.80039Z" fill="#333535"/><path d="M139.72695,235.77261c.08333-9.41666-56.41667-27.33333-56.08334-31.08333.28927-3.25422,57.5-11.197,57.5-13.58333V179.02261c0-1.83333-73.91666,13.75-73.91666,17.33333,0,5.08334.16666,9.98577.16666,13.83334,0,3.12381,71.33334,36.73188,71.33334,36.08333C138.72695,238.43928,139.64146,245.43273,139.72695,235.77261Z" fill="#333535"/><path d="M141.14361,170.27261c0-2.25-73.51677,7.41667-73.51677,10.922,0,1.72415-.011,2.55024-.011,6.953,0,2.65278,65.11111-9.84722,73.52777-9.56944Z" fill="#333535"/><path d="M127.1575,758.30039c1.35577,3.58334-36.43055,25.47222-36.43055,28.38889,0,3.16667,13.625.75,14.33333,2.33333,2.10989,4.71623,3.5,12.66667,3.5,12.66667-3.04167.70833-35.30847,1.426-35.29167-1.20833.03242-5.08324-.20125-11.06876-.20125-14.91633,0-2.45867,51.1443-40.03439,51.38181-39.43089C126.99084,752.59206,124.90128,752.33712,127.1575,758.30039Z" fill="#333535"/><path d="M163.56029.02261C144.67139-.86627,87.09232,24.69529,61.227,33.356c-8.63349,2.8908-44.04417,17.13623-47.33335,17.44444-5.92884.55556-9.73446,61.90924-2,79.22222,3.13279,7.0125,41.22224-21.44444,60.8889-40.22222,14.56226-13.90408,49.59-23.499,62.44445-27.44444,11.22222-3.44445,28.9509,3.32795,28.9509,3.32795Z" fill="#00c5f2"/><path d="M152.11584,24.895C129.22695,17.56168,63.89361,79.68928,10.7825,77.86889c-2.28091-.07818-5.66666,49.04261,1.55556,52.59817C26.10767,137.24594,74.56028,88.9115,82.7825,85.57817c39.363-15.958,46.90385-24.68254,62.68163-24.23809C156.83891,61.66049,162.95071,28.36638,152.11584,24.895Z" fill="#facbef"/><path id="body-2" data-name="body" d="M164.11583,10.46706c0-1.1161-9.81283,3.40044-13.33334,11.11111a16.592,16.592,0,0,0-1.11108,3.33333c-7.33335,35.77778-10,175.55545-10,175.55556-2.88892,67.1111-9.11112,87.55555-20.22223,153.33332-.68433,4.05121-3.32019,18.15983-6.255,20.203-6.41168,4.46368-49.57712,9.51938-58.745,21.57477-14.11112,18.55557-20.51526,110.082-13.169,138.67627C66.227,631.35593,98.02083,796.467,119.8936,834.46707h45.55558C165.44918,750.02261,164.11583,55.07817,164.11583,10.46706Z" fill="#00c5f2"/><path d="M-9.72222,170.46706H78.43972a13.61584,13.61584,0,0,1,13.61584,13.61584v27.93972a14.66667,14.66667,0,0,1-14.66667,14.66667h-94.5a9.72222,9.72222,0,0,1-9.72222-9.72222V187.57817A17.11111,17.11111,0,0,1-9.72222,170.46706Z" transform="translate(231.18928 165.96706) rotate(90)" fill="#231f20" stroke="#231f20" stroke-miterlimit="10"/><path d="M-5.63653,749.82581H82.52542a13.61584,13.61584,0,0,1,13.61584,13.61584v44.11111a14.66667,14.66667,0,0,1-14.66667,14.66667h-94.5a9.72222,9.72222,0,0,1-9.72222-9.72222V766.93692A17.11111,17.11111,0,0,1-5.63653,749.82581Z" transform="translate(822.71942 749.32581) rotate(90)" fill="#231f20" stroke="#231f20" stroke-miterlimit="10"/><path d="M167.44918,912.9115V834.46707H64.97775l-1.17784,16.77777c.11779,37.33333-6.94921,47.55555-6.12473,61.66666Z" fill="#facbef"/><path d="M80.67141,181.30038c0-10.38888-12.16669-19.64724-12.16669-22.77777,0-3.88435.72223-11.72223-1.05554-12.94444-.64487-.44334-1.83335-1.959-1.83335-1.11111,0,1.16667-.11111,4.38621-.11111,8.55555,0,8.50817-20.53028,15.52707-24.72223,18.33333-2.57263,1.72223-1.19009,15.34375-1.19009,24.05556,0,8.55907,15.63647.85585,20.96789,7.27779,2.44443,2.94444,1.77167,30.7111,1.77167,30.7111,4.77777.16666,6.06164-4.48889,8.395-4.6,0,0,.055,2.11728.055,7.05536,0,2.22223-10.77719,18.61133-9.22162,21.50022.53333.99045,11.61112-12.33335,11.83331-17.11112h5.88889c-.05554-3.72223.16669-12.25882.16669-18.16667C79.44918,203.63373,80.67141,195.06345,80.67141,181.30038Z"/><path d="M13.8936,50.80039C12.23258,50.801,4.5,57.02261,4.5,60.356c0,28.59382-5.26962,49.4475-1.273,50.88889,6.77778,2.44444,3.91666,17.27777,8.09311,18.33538C13.59739,130.15691,16.142,50.79962,13.8936,50.80039Z"/><path d="M79.18529,733.9393c.443,0,3.18646,1.95831,3.18646,6.089,0,10.97035,4.71325,14.704,4.8552,19.786.20832,7.45833-2.625,11.29167-2.70834,15.45833-.03992,1.99625-7.0694,26.111-7.06943,26.11109a13.76059,13.76059,0,0,0-.13889,3.8056c0,.9444,11.91666-.83337,12.16666,1.45831a99.14224,99.14224,0,0,1,0,11.625c-.04167,1.75-11.041.95834-15.91667.95834-1.12489,0-2.00693-66.4236-.1111-68.31942.59511-.59511,4.98611-1.97225,4.98611-3.13892C78.43529,742.5643,77.977,733.9393,79.18529,733.9393Z"/></g></g></svg>
