<svg xmlns="http://www.w3.org/2000/svg" viewBox="0 0 979.19584 637.78077"><g id="Layer_2" data-name="Layer 2"><g id="Layer_2-2" data-name="Layer 2"><path d="M20.13487,607.00226c-12.97738-7.24862,15.68928-91.24862,61.02262-156.58195,19.39767-27.95547,75-77.33334,100-106.33334,11.76639-13.649,9.34753-38.69461,29-54,17.93349-13.96664,41.07329-14.41322,51.33334-18.41665C289.82415,260.61475,343.55334,204.667,376.82414,179.36c10-7.60637,350-166.60637,369.8889-162.273,11.62316,2.53242,11.56418,18.06827,28.21726,22.79283,21.879,6.20717,47.819-19.18147,72.89388-17.12615,20.33331,1.66666,14.33331,17,61,61.66666,7.49286,7.17173,76,61,45.66665,86.33332a24.56867,24.56867,0,0,1-10.0567,4.96075c-30.08106,5.41132-63.576-64.859-80.9433-63.96073-18.83862.97441-14.28259,7.69192-107.33331,45.66667-86.23535,35.19333-115.58039,31.592-125.66669,50.66665-14.87366,28.12824-10.60651,71.86011,12.33338,101,24.66662,31.33335,179.65625,40.33335,201.33331,76.33335,16.76648,27.84475-15.95685,39.723-4.613,68.57357,18.49335,47.03388,93.74359,36.13538,112.037,73.30341,9.57605,19.45636-35.09064,95.123-57.75726,93.45636C731.86543,608.84509,684.15749,451.42029,651.3301,430.75531c-48.38672-30.45966-90.07312-52.00168-146.39484-52.00168-42.44443,0-111.11112,80.66666-251.44443,90.33334-12.37588.85248,1.69681-24.69305-12-27.66668C224.60193,437.75366,35.54392,615.60909,20.13487,607.00226Z" fill="none" stroke="#58595b" stroke-miterlimit="10" stroke-width="34"/></g></g></svg>