<svg xmlns="http://www.w3.org/2000/svg" xmlns:xlink="http://www.w3.org/1999/xlink" viewBox="0 0 913.09042 332.73163"><defs><linearGradient id="linear-gradient" x1="449.26743" y1="80.64361" x2="454.82299" y2="80.64361" gradientUnits="userSpaceOnUse"><stop offset="0.42458"/><stop offset="1" stop-color="#00c5f2"/></linearGradient><linearGradient id="linear-gradient-2" x1="459.26743" y1="79.72695" x2="464.82299" y2="79.72695" xlink:href="#linear-gradient"/><linearGradient id="linear-gradient-3" x1="469.4341" y1="79.72695" x2="474.98965" y2="79.72695" xlink:href="#linear-gradient"/><linearGradient id="linear-gradient-4" x1="479.26743" y1="79.72695" x2="484.82299" y2="79.72695" xlink:href="#linear-gradient"/><linearGradient id="linear-gradient-5" x1="488.6841" y1="79.72695" x2="494.23965" y2="79.72695" xlink:href="#linear-gradient"/><linearGradient id="linear-gradient-6" x1="499.26743" y1="80.64361" x2="504.82299" y2="80.64361" xlink:href="#linear-gradient"/><linearGradient id="linear-gradient-7" x1="509.10076" y1="81.75473" x2="514.65632" y2="81.75473" xlink:href="#linear-gradient"/><linearGradient id="linear-gradient-8" x1="519.10076" y1="82.81028" x2="524.65632" y2="82.81028" xlink:href="#linear-gradient"/><linearGradient id="linear-gradient-9" x1="552.43411" y1="115.0311" x2="561.43411" y2="115.0311" gradientUnits="userSpaceOnUse"><stop offset="0.245" stop-color="#001273" stop-opacity="0.39"/><stop offset="0.29011" stop-color="#002581" stop-opacity="0.47516"/><stop offset="0.38565" stop-color="#004a9a" stop-opacity="0.63433"/><stop offset="0.48245" stop-color="#0068af" stop-opacity="0.76627"/><stop offset="0.57924" stop-color="#007fbf" stop-opacity="0.86872"/><stop offset="0.67602" stop-color="#0090cb" stop-opacity="0.94174"/><stop offset="0.77286" stop-color="#009ad2" stop-opacity="0.98546"/><stop offset="0.87" stop-color="#009dd4"/></linearGradient><linearGradient id="linear-gradient-10" x1="565.21188" y1="114.99508" x2="574.21188" y2="114.99508" xlink:href="#linear-gradient-9"/><linearGradient id="linear-gradient-11" x1="578.21188" y1="114.57841" x2="587.21188" y2="114.57841" xlink:href="#linear-gradient-9"/><linearGradient id="linear-gradient-12" x1="591.29521" y1="113.83736" x2="600.29521" y2="113.83736" xlink:href="#linear-gradient-9"/><linearGradient id="linear-gradient-13" x1="603.46188" y1="113.83736" x2="612.46188" y2="113.83736" xlink:href="#linear-gradient-9"/><linearGradient id="linear-gradient-14" x1="615.87854" y1="113.83736" x2="624.87854" y2="113.83736" xlink:href="#linear-gradient-9"/><linearGradient id="linear-gradient-15" x1="628.04521" y1="113.83736" x2="637.04521" y2="113.83736" xlink:href="#linear-gradient-9"/><linearGradient id="linear-gradient-16" x1="640.21188" y1="114.20788" x2="649.21188" y2="114.20788" xlink:href="#linear-gradient-9"/><linearGradient id="linear-gradient-17" x1="449.42375" y1="-84.36106" x2="454.97931" y2="-84.36106" gradientTransform="matrix(1, 0, 0, -1, 0, 167.72696)" xlink:href="#linear-gradient"/><linearGradient id="linear-gradient-18" x1="459.42375" y1="-85.27772" x2="464.97931" y2="-85.27772" gradientTransform="matrix(1, 0, 0, -1, 0, 167.72696)" xlink:href="#linear-gradient"/><linearGradient id="linear-gradient-19" x1="469.59042" y1="-85.27772" x2="475.14597" y2="-85.27772" gradientTransform="matrix(1, 0, 0, -1, 0, 167.72696)" xlink:href="#linear-gradient"/><linearGradient id="linear-gradient-20" x1="479.42375" y1="-85.27772" x2="484.97931" y2="-85.27772" gradientTransform="matrix(1, 0, 0, -1, 0, 167.72696)" xlink:href="#linear-gradient"/><linearGradient id="linear-gradient-21" x1="488.84042" y1="-85.27772" x2="494.39597" y2="-85.27772" gradientTransform="matrix(1, 0, 0, -1, 0, 167.72696)" xlink:href="#linear-gradient"/><linearGradient id="linear-gradient-22" x1="499.42375" y1="-84.36106" x2="504.97931" y2="-84.36106" gradientTransform="matrix(1, 0, 0, -1, 0, 167.72696)" xlink:href="#linear-gradient"/><linearGradient id="linear-gradient-23" x1="509.25708" y1="-83.24994" x2="514.81264" y2="-83.24994" gradientTransform="matrix(1, 0, 0, -1, 0, 167.72696)" xlink:href="#linear-gradient"/><linearGradient id="linear-gradient-24" x1="519.25708" y1="-82.19439" x2="524.81264" y2="-82.19439" gradientTransform="matrix(1, 0, 0, -1, 0, 167.72696)" xlink:href="#linear-gradient"/><linearGradient id="linear-gradient-25" x1="552.59043" y1="-49.97357" x2="561.59043" y2="-49.97357" gradientTransform="matrix(1, 0, 0, -1, 0, 167.72696)" xlink:href="#linear-gradient-9"/><linearGradient id="linear-gradient-26" x1="565.36819" y1="-50.00959" x2="574.36819" y2="-50.00959" gradientTransform="matrix(1, 0, 0, -1, 0, 167.72696)" xlink:href="#linear-gradient-9"/><linearGradient id="linear-gradient-27" x1="578.36819" y1="-50.42626" x2="587.36819" y2="-50.42626" gradientTransform="matrix(1, 0, 0, -1, 0, 167.72696)" xlink:href="#linear-gradient-9"/><linearGradient id="linear-gradient-28" x1="591.45153" y1="-51.16731" x2="600.45153" y2="-51.16731" gradientTransform="matrix(1, 0, 0, -1, 0, 167.72696)" xlink:href="#linear-gradient-9"/><linearGradient id="linear-gradient-29" x1="603.61819" y1="-51.16731" x2="612.61819" y2="-51.16731" gradientTransform="matrix(1, 0, 0, -1, 0, 167.72696)" xlink:href="#linear-gradient-9"/><linearGradient id="linear-gradient-30" x1="616.03486" y1="-51.16731" x2="625.03486" y2="-51.16731" gradientTransform="matrix(1, 0, 0, -1, 0, 167.72696)" xlink:href="#linear-gradient-9"/><linearGradient id="linear-gradient-31" x1="628.20153" y1="-51.16731" x2="637.20153" y2="-51.16731" gradientTransform="matrix(1, 0, 0, -1, 0, 167.72696)" xlink:href="#linear-gradient-9"/><linearGradient id="linear-gradient-32" x1="640.36819" y1="-50.79679" x2="649.36819" y2="-50.79679" gradientTransform="matrix(1, 0, 0, -1, 0, 167.72696)" xlink:href="#linear-gradient-9"/></defs><g id="Layer_2" data-name="Layer 2"><g id="Layer_1-2" data-name="Layer 1"><path d="M318.9908,125.97049c5.55441-17.07688,30.72108-61.99354,34.55441-64.41021,9.55912-6.0264,36.58161-8.3776,56.16665-23,3.69428-2.75819,134.08364-4.43606,185.66476,1.59563C652.04521,46.7825,721.631,56.93957,721.60076,61.67139c-.33333,52.11111.41047,46.25787.41047,72.966Z" fill="#333535"/><path d="M710.15632,118.11584c-2.25,0,42.77778-45.22223,47.15809-45.03747,1.72262.07265,5.953-.01153,10.17524-.011,2.31044.00028-39.66666,46.71514-44.44444,47.27778C723.04521,120.34514,715.23965,118.11584,710.15632,118.11584Z" fill="#333535"/><path d="M203.60076,140.7825c6.88889,0,4.77778-54.44444,7.77778-63,0,0-9.37-.21066-10.5449.84454-5.12176,4.59991-8.679,62.04435-6.344,62.04435C198.9341,140.67139,202.54983,140.7825,203.60076,140.7825Z" fill="#1d1e1e"/><path d="M803.823,109.4176c-.69445-2.44065,3.18574-18.95933,3.68055-22.024.27482-1.70211,11.25-1.33333,11.04167-.41666-.408,1.79511-4.41667,21.54166-7.29167,23.79166C811.25354,110.76861,803.95811,109.89249,803.823,109.4176Z" fill="#333535"/><path d="M235.79521,139.72695c-9.41667.08333-27.33333-56.41667-31.08333-56.08334-3.25422.28927-11.197,57.5-13.58334,57.5H179.04521c-1.83333,0,13.75-73.91666,17.33333-73.91666,5.08334,0,9.98577.16666,13.83334.16666,3.12381,0,36.73188,71.33334,36.08333,71.33334C238.46188,138.72695,245.45532,139.64146,235.79521,139.72695Z" fill="#333535"/><path d="M170.29521,141.14361c-2.25,0,7.41667-73.51677,10.922-73.51677,1.72415,0,2.55024-.011,6.953-.011,2.65278,0-9.84722,65.11111-9.56945,73.52777Z" fill="#333535"/><path d="M758.323,127.1575c3.58333,1.35577,25.47222-36.43055,28.38889-36.43055,3.16666,0,.75,13.625,2.33333,14.33333,4.71623,2.10989,12.66667,3.5,12.66667,3.5.70833-3.04167,1.426-35.30847-1.20834-35.29167-5.08323.03242-11.06876-.20125-14.91633-.20125-2.45867,0-40.03439,51.1443-39.43089,51.38181C752.61465,126.99084,752.35971,124.90128,758.323,127.1575Z" fill="#333535"/><path d="M.02259,166.25151c-.88888-18.8889,24.69529-79.15919,33.356-105.02456C36.26934,52.59346,50.51478,17.18278,50.823,13.8936c.55555-5.92884,61.90923-9.73446,79.22222-2,7.0125,3.13279-21.44445,41.22224-40.22222,60.8889-13.90408,14.56226-23.499,49.59-27.44445,62.44445-3.44444,11.22222,3.18814,30.74037,3.18814,30.74037Z" fill="#00c5f2"/><path d="M24.9176,152.11584C17.58427,129.22695,79.71188,63.89361,77.89148,10.7825c-.07818-2.28091,49.04262-5.66666,52.59817,1.55556C137.26854,26.10767,88.9341,74.56028,85.60076,82.7825c-15.958,39.363-24.68253,46.90385-24.23809,62.68163C61.68309,156.83891,28.389,162.95071,24.9176,152.11584Z" fill="#facbef"/><path d="M37.20133,151.33807C29.868,128.44918,91.9956,63.11585,90.1752,10.00474c-.07818-2.28092,36.7589-4.8889,40.31445,2.33332C137.26854,26.10767,88.9341,74.56028,85.60076,82.7825c-15.958,39.363-24.68253,46.90385-24.23809,62.68163C61.68309,156.83891,40.67269,162.17295,37.20133,151.33807Z" fill="#f7b4ea"/><path d="M50.21188,151.33807c-7.33334-22.88889,54.79427-88.22222,52.97387-141.33333-.07818-2.28092,23.74835-4.8889,27.3039,2.33332C137.26854,26.10767,88.9341,74.56028,85.60076,82.7825c-15.958,39.363-24.68253,46.90385-24.23809,62.68163C61.68309,156.83891,53.68324,162.17295,50.21188,151.33807Z" fill="#f7a3ea"/><path id="body" d="M10.40549,165.89362c-1.1161,0,3.4846-11.59062,11.19528-15.11113a16.592,16.592,0,0,1,3.33333-1.11108c35.77777-7.33335,175.55544-10,175.55555-10,67.1111-2.88892,87.55556-9.11112,153.33333-20.22223,4.05121-.68433,18.15982-3.32019,20.203-6.255,4.46369-6.41168,9.51938-49.57712,21.57477-58.745C414.15632,40.33806,570.2843,58.38069,598.87854,65.727,695.98,90.67372,796.48961,98.02083,834.48967,119.8936l-.08416,47.33336C749.96105,167.227,55.01661,165.89362,10.40549,165.89362Z" fill="#00c5f2"/><path d="M148.87854,4.5h94.5a14.66667,14.66667,0,0,1,14.66667,14.66667V47.10639a13.61584,13.61584,0,0,1-13.61584,13.61584H156.26743a17.11111,17.11111,0,0,1-17.11111-17.11111V14.22222A9.72222,9.72222,0,0,1,148.87854,4.5Z" fill="#231f20" stroke="#231f20" stroke-miterlimit="10"/><path d="M736.323.5h94.5a14.66667,14.66667,0,0,1,14.66667,14.66667V59.27778a13.61584,13.61584,0,0,1-13.61584,13.61584H743.71188A17.11111,17.11111,0,0,1,726.60076,55.7825V10.22222A9.72222,9.72222,0,0,1,736.323.5Z" fill="#231f20" stroke="#231f20" stroke-miterlimit="10"/><path d="M912.9341,167.227H834.48967V64.84356l16.77776-1.15639c37.33333.11564,47.55556-6.82268,61.66667-6.01321Z" fill="#facbef"/><path d="M181.323,80.67141c-10.38889,0-19.64725-12.16669-22.77777-12.16669-3.88436,0-11.72223.72223-12.94444-1.05554-.44335-.64487-1.959-1.83335-1.11112-1.83335,1.16667,0,4.38622-.11111,8.55556-.11111,8.50816,0,15.52707-20.53028,18.33333-24.72223,1.72223-2.57263,15.34375-1.19009,24.05555-1.19009,8.55907,0,.85585,15.63647,7.27779,20.96789C205.65632,63.00472,233.423,62.332,233.423,62.332c.16665,4.77777-4.4889,6.06164-4.6,8.395,0,0,2.11728.055,7.05536.055,2.22223,0,18.61133-10.77719,21.50021-9.22162.99045.53333-12.33334,11.61112-17.11111,11.83331v5.88889c-3.72223-.05554-12.25882.16669-18.16667.16669C203.65632,79.44918,195.086,80.67141,181.323,80.67141Z"/><path d="M50.823,13.8936c.00056-1.661,6.22222-9.3936,9.55555-9.3936,28.59383,0,49.4475-5.26962,50.88889-1.273,2.44445,6.77778,17.27778,3.91666,18.33538,8.09311C130.1795,13.59739,50.82222,16.142,50.823,13.8936Z"/><path d="M733.9619,79.18529c0,.443,1.95831,3.18646,6.089,3.18646,10.97036,0,14.704,4.71325,19.786,4.8552,7.45833.20832,11.29166-2.625,15.45833-2.70834,1.99624-.03992,26.111-7.0694,26.11108-7.06943a13.76066,13.76066,0,0,1,3.80561-.13889c.94439,0-.83338,11.91666,1.45831,12.16666a99.14222,99.14222,0,0,0,11.625,0c1.75-.04167.95833-11.041.95833-15.91667,0-1.12489-66.42359-2.00693-68.31942-.1111-.5951.59511-1.97224,4.98611-3.13891,4.98611C742.5869,78.43529,733.9619,77.977,733.9619,79.18529Z"/><path d="M391.29313,59.50739c1.96041-4.23878,8.22394-8.486,13.80762-10.9471,11.72223-5.16669,56.83335-11.9245,85.61113-11.22223,20.94964.51123,32.80072.99492,49.22222,5.88889,72.882,21.72042,126.55555,20,131.37588,49.58334,0,0-129.96472-31.76056-162.20923-37.80557C482.73716,50.06221,391.07375,59.98172,391.29313,59.50739Z" fill="#facbef"/><rect x="449.26743" y="69.58806" width="5.55556" height="22.11111" fill="url(#linear-gradient)"/><rect x="459.26743" y="68.67139" width="5.55556" height="22.11111" fill="url(#linear-gradient-2)"/><rect x="469.4341" y="68.67139" width="5.55556" height="22.11111" fill="url(#linear-gradient-3)"/><rect x="479.26743" y="68.67139" width="5.55556" height="22.11111" fill="url(#linear-gradient-4)"/><rect x="488.6841" y="68.67139" width="5.55556" height="22.11111" fill="url(#linear-gradient-5)"/><rect x="499.26743" y="69.58806" width="5.55556" height="22.11111" fill="url(#linear-gradient-6)"/><rect x="509.10076" y="70.69917" width="5.55556" height="22.11111" fill="url(#linear-gradient-7)"/><rect x="519.10076" y="71.75473" width="5.55556" height="22.11111" fill="url(#linear-gradient-8)"/><path d="M336.15632,166.56029c0-10,3.78083-21.44147,10.55554-27,3.24842-2.66525,18.83335-1,20.91668-1,0,0,26.52637-21.11647,34.1389-23,10.77777-2.66668,17.39291-12.16879,28.02777-14.08334,63.41667-11.41667,67.62579,3.5,114.25,3.5,8.5,0,41.53161-4.84671,84.5-4.84671,41.5,0,85.80414,15.11856,93.466,18.68,14.70069,6.83331,64.70069,5.91666,64.70069,7.75v40.50017Z" fill="#21accc"/><path d="M467.71188,166.56029H336.15632v-10.3139c0-3.6897,6.88889-18.01944,14.33333-18.01944h97.66667c10.75556,0,19.55556,8.49488,19.55556,18.87751Z"/><polygon points="561.434 122.734 552.434 122.734 552.434 108.31 561.434 107.328 561.434 122.734" fill="url(#linear-gradient-9)"/><polygon points="574.212 124.013 565.212 124.013 565.212 107.328 574.212 105.977 574.212 124.013" fill="url(#linear-gradient-10)"/><polygon points="587.212 124.948 578.212 124.948 578.212 105.56 587.212 104.209 587.212 124.948" fill="url(#linear-gradient-11)"/><polygon points="600.295 125.364 591.295 125.364 591.295 103.662 600.295 102.31 600.295 125.364" fill="url(#linear-gradient-12)"/><polyline points="603.462 125.943 603.462 101.731 612.462 101.731 612.462 125.943" fill="url(#linear-gradient-13)"/><polyline points="615.879 125.943 615.879 101.731 624.879 101.731 624.879 125.943" fill="url(#linear-gradient-14)"/><polyline points="628.045 125.943 628.045 101.731 637.045 101.731 637.045 125.943" fill="url(#linear-gradient-15)"/><polyline points="640.212 126.684 640.212 101.731 649.212 103.06 649.212 126.684" fill="url(#linear-gradient-16)"/><path d="M299.37855,166.3936c-.15179-2.322,5.05554-3.83331,14.33331-3.83331,7.83912,0,13.60092,1.6405,15.22223,1.55554,25.44445-1.33333,40.55556-44.77777,76.33335-51.61111,3.32871-.63577,66.94444-.16666,79.27777,1.55557l-.16669,5.66666c-5.11108,2.5-71.77777-1.94446-78.88885.38888-20.70957,6.79532-34,26.33335-34.94446,46.44446Z" fill="#0066b8"/><path d="M319.14712,206.76114c5.55441,17.07688,30.72107,61.99354,34.55441,64.41021,9.55912,6.02641,36.58161,8.3776,56.16665,23,3.69428,2.75819,134.08363,4.43606,185.66476-1.59562,56.66859-6.62659,126.25441-16.78366,126.22414-21.51548-.33333-52.11111.41046-46.25787.41046-72.966Z" fill="#333535"/><path d="M710.31264,214.6158c-2.25,0,42.77778,45.22222,47.15809,45.03747,1.72262-.07266,5.953.01152,10.17524.011,2.31044-.00028-39.66666-46.71514-44.44444-47.27778C723.20153,212.38649,715.396,214.6158,710.31264,214.6158Z" fill="#333535"/><path d="M203.75708,191.94913c6.88889,0,4.77778,54.44444,7.77778,63,0,0-9.37.21066-10.5449-.84453-5.12177-4.59992-8.679-62.04436-6.344-62.04436C199.09042,192.06024,202.70615,191.94913,203.75708,191.94913Z" fill="#1d1e1e"/><path d="M803.97931,223.314c-.69445,2.44065,3.18574,18.95934,3.68055,22.024.27482,1.70211,11.25,1.33333,11.04167.41666-.408-1.79511-4.41667-21.54166-7.29167-23.79166C811.40986,221.963,804.11443,222.83915,803.97931,223.314Z" fill="#333535"/><path d="M235.95153,193.00468c-9.41667-.08333-27.33334,56.41667-31.08334,56.08334-3.25421-.28927-11.197-57.5-13.58333-57.5H179.20153c-1.83334,0,13.75,73.91666,17.33333,73.91666,5.08333,0,9.98576-.16666,13.83333-.16666,3.12382,0,36.73189-71.33334,36.08334-71.33334C238.61819,194.00468,245.61164,193.09017,235.95153,193.00468Z" fill="#333535"/><path d="M170.45153,191.588c-2.25,0,7.41666,73.51677,10.922,73.51677,1.72415,0,2.55024.011,6.953.011,2.65278,0-9.84722-65.11112-9.56945-73.52778Z" fill="#333535"/><path d="M758.47931,205.57413c3.58333-1.35577,25.47222,36.43055,28.38888,36.43055,3.16667,0,.75-13.625,2.33334-14.33333,4.71623-2.10989,12.66666-3.5,12.66666-3.5.70834,3.04167,1.426,35.30847-1.20833,35.29167-5.08323-.03242-11.06876.20125-14.91633.20125-2.45867,0-40.03439-51.1443-39.43089-51.38181C752.771,205.7408,752.516,207.83035,758.47931,205.57413Z" fill="#333535"/><path d="M.17891,166.48012C-.71,185.369,24.8742,245.63931,33.53486,271.50468c2.8908,8.63349,17.13624,44.04418,17.44445,47.33335.55555,5.92884,61.90923,9.73446,79.22222,2,7.01249-3.13278-21.44445-41.22223-40.22222-60.8889-13.90408-14.56226-23.499-49.59-27.44445-62.44445-3.44444-11.22222,3.18814-30.74037,3.18814-30.74037Z" fill="#00c5f2"/><path d="M25.07392,180.6158C17.74059,203.50468,79.86819,268.838,78.0478,321.94913c-.07818,2.28092,49.04262,5.66667,52.59817-1.55556,6.77889-13.76961-41.55555-62.22222-44.88889-70.44444-15.958-39.363-24.68253-46.90385-24.23809-62.68162C61.83941,175.89272,28.54529,169.78092,25.07392,180.6158Z" fill="#facbef"/><path d="M37.35765,181.39356c-7.33334,22.88889,54.79427,88.22222,52.97387,141.33333-.07818,2.28092,36.7589,4.88891,40.31445-2.33332,6.77889-13.76961-41.55555-62.22222-44.88889-70.44444-15.958-39.363-24.68253-46.90385-24.23809-62.68162C61.83941,175.89272,40.829,170.55868,37.35765,181.39356Z" fill="#f7b4ea"/><path d="M50.36819,181.39356c-7.33333,22.88889,54.79427,88.22222,52.97388,141.33333-.07818,2.28092,23.74835,4.88891,27.3039-2.33332,6.77889-13.76961-41.55555-62.22222-44.88889-70.44444-15.958-39.363-24.68253-46.90385-24.23809-62.68162C61.83941,175.89272,53.83956,170.55868,50.36819,181.39356Z" fill="#f7a3ea"/><path id="body-2" data-name="body" d="M10.56181,166.838c-1.1161,0,3.4846,11.59062,11.19528,15.11113a16.59234,16.59234,0,0,0,3.33333,1.11109c35.77777,7.33334,175.55544,10,175.55555,10,67.1111,2.88891,87.55556,9.11111,153.33333,20.22223,4.05121.68432,18.15982,3.32019,20.203,6.255,4.46369,6.41168,9.51938,49.57712,21.57477,58.745,18.55557,14.11111,174.68355-3.93152,203.27779-11.27778C696.13636,242.05791,796.64592,234.7108,834.646,212.838l-.08416-47.33336C750.11737,165.50467,55.17293,166.838,10.56181,166.838Z" fill="#00c5f2"/><path d="M156.42375,272.00941h88.16194a13.61584,13.61584,0,0,1,13.61584,13.61584V313.565a14.66667,14.66667,0,0,1-14.66667,14.66667h-94.5a9.72222,9.72222,0,0,1-9.72222-9.72222V289.12052A17.11111,17.11111,0,0,1,156.42375,272.00941Z" fill="#231f20" stroke="#231f20" stroke-miterlimit="10"/><path d="M743.86819,259.838h88.16194A13.61584,13.61584,0,0,1,845.646,273.45385V317.565a14.66667,14.66667,0,0,1-14.66667,14.66667h-94.5a9.72222,9.72222,0,0,1-9.72222-9.72222V276.94913A17.11111,17.11111,0,0,1,743.86819,259.838Z" fill="#231f20" stroke="#231f20" stroke-miterlimit="10"/><path d="M913.09042,165.50467H834.646v102.3834l16.77776,1.15639c37.33333-.11564,47.55556,6.82268,61.66667,6.01321Z" fill="#facbef"/><path d="M181.4793,252.06023c-10.38889,0-19.64725,12.16668-22.77777,12.16668-3.88436,0-11.72223-.72223-12.94444,1.05555-.44335.64486-1.959,1.83334-1.11112,1.83334,1.16667,0,4.38622.11111,8.55556.11111,8.50816,0,15.52707,20.53028,18.33333,24.72223,1.72223,2.57263,15.34375,1.1901,24.05555,1.1901,8.55907,0,.85585-15.63648,7.27779-20.9679,2.94444-2.44443,30.7111-1.77167,30.7111-1.77167.16666-4.77777-4.48889-6.06164-4.6-8.395,0,0,2.11728-.055,7.05536-.055,2.22223,0,18.61133,10.77719,21.50021,9.22162.99045-.53332-12.33334-11.61111-17.11111-11.83331v-5.88889c-3.72223.05554-12.25882-.16668-18.16667-.16668C203.81264,253.28246,195.24236,252.06023,181.4793,252.06023Z"/><path d="M50.97931,318.838c.00056,1.661,6.22222,9.3936,9.55555,9.3936,28.59383,0,49.4475,5.26962,50.88889,1.27305,2.44444-6.77777,17.27778-3.91666,18.33538-8.0931C130.33582,319.13424,50.97854,316.58963,50.97931,318.838Z"/><path d="M734.11821,253.54634c0-.443,1.95832-3.18646,6.089-3.18646,10.97036,0,14.704-4.71325,19.786-4.8552,7.45834-.20832,11.29167,2.625,15.45834,2.70834,1.99624.03992,26.111,7.0694,26.11108,7.06944a13.761,13.761,0,0,0,3.8056.13888c.9444,0-.83337-11.91666,1.45832-12.16666a99.14441,99.14441,0,0,1,11.625,0c1.75.04167.95833,11.041.95833,15.91667,0,1.12489-66.42359,2.00693-68.31942.11111-.59511-.59511-1.97225-4.98612-3.13891-4.98612C742.74321,254.29634,734.11821,254.75468,734.11821,253.54634Z"/><path d="M391.44945,273.22424c1.96041,4.23878,8.22394,8.486,13.80762,10.9471,11.72223,5.16669,56.83335,11.9245,85.61112,11.22223,20.94965-.51123,32.80072-.99492,49.22223-5.88889,72.882-21.72041,126.55555-20,131.37588-49.58334,0,0-129.96472,31.76056-162.20923,37.80557C482.89348,282.66942,391.23007,272.74991,391.44945,273.22424Z" fill="#facbef"/><rect x="449.42375" y="241.03246" width="5.55556" height="22.11111" fill="url(#linear-gradient-17)"/><rect x="459.42375" y="241.94913" width="5.55556" height="22.11111" fill="url(#linear-gradient-18)"/><rect x="469.59042" y="241.94913" width="5.55556" height="22.11111" fill="url(#linear-gradient-19)"/><rect x="479.42375" y="241.94913" width="5.55556" height="22.11111" fill="url(#linear-gradient-20)"/><rect x="488.84042" y="241.94913" width="5.55556" height="22.11111" fill="url(#linear-gradient-21)"/><rect x="499.42375" y="241.03246" width="5.55556" height="22.11111" fill="url(#linear-gradient-22)"/><rect x="509.25708" y="239.92135" width="5.55556" height="22.11111" fill="url(#linear-gradient-23)"/><rect x="519.25708" y="238.8658" width="5.55556" height="22.11111" fill="url(#linear-gradient-24)"/><path d="M336.31264,166.17134c0,10,3.78083,21.44147,10.55554,27,3.24842,2.66525,18.83335,1,20.91668,1,0,0,26.52637,21.11647,34.1389,23,10.77777,2.66668,17.39291,12.16879,28.02777,14.08334,63.41666,11.41667,67.62579-3.5,114.25-3.5,8.5,0,41.53161,4.84671,84.5,4.84671,41.5,0,85.80414-15.11856,93.466-18.68005,14.70068-6.83331,64.70068-5.91666,64.70068-7.75V165.67118Z" fill="#21accc"/><path d="M467.86819,166.17134H336.31264v10.3139c0,3.6897,6.88889,18.01944,14.33333,18.01944h97.66667c10.75555,0,19.55555-8.49488,19.55555-18.87751Z"/><polygon points="561.59 209.998 552.59 209.998 552.59 224.421 561.59 225.403 561.59 209.998" fill="url(#linear-gradient-25)"/><polygon points="574.368 208.718 565.368 208.718 565.368 225.403 574.368 226.755 574.368 208.718" fill="url(#linear-gradient-26)"/><polygon points="587.368 207.784 578.368 207.784 578.368 227.171 587.368 228.523 587.368 207.784" fill="url(#linear-gradient-27)"/><polygon points="600.452 207.367 591.452 207.367 591.452 229.07 600.452 230.421 600.452 207.367" fill="url(#linear-gradient-28)"/><polyline points="603.618 206.788 603.618 231 612.618 231 612.618 206.788" fill="url(#linear-gradient-29)"/><polyline points="616.035 206.788 616.035 231 625.035 231 625.035 206.788" fill="url(#linear-gradient-30)"/><polyline points="628.202 206.788 628.202 231 637.202 231 637.202 206.788" fill="url(#linear-gradient-31)"/><polyline points="640.368 206.047 640.368 231 649.368 229.671 649.368 206.047" fill="url(#linear-gradient-32)"/><path d="M299.53487,166.338c-.15179,2.322,5.05554,3.83331,14.33331,3.83331,7.83912,0,13.60092-1.6405,15.22223-1.55554,25.44445,1.33333,40.55556,44.77777,76.33335,51.61111,3.32871.63577,66.94443.16666,79.27777-1.55557l-.16669-5.66666c-5.11108-2.5-71.77777,1.94446-78.88885-.38888-20.70957-6.79532-34-26.33334-34.94446-46.44446Z" fill="#0066b8"/><polygon points="848.267 83.227 910.267 83.227 910.267 151.671 896.49 155.671 910.267 158.116 910.267 181.005 897.601 182.782 910.267 187.449 910.267 249.894 882.712 249.894 882.712 237.894 846.934 237.894 846.934 208.56 882.267 208.56 846.934 195.005 846.934 171.894 862.045 167.116 846.934 165.449 846.934 143.894 862.045 138.394 848.267 127.193 848.267 83.227" fill="#fff"/><path d="M853.37852,89.65737h48.5556c0,8.52682-.11114,22.79181-.11114,29.79181,0,4.0589-5.69444,10.69442-13.27777,10.69442-8.83333,0-7.66667-5.58332-9.58333-5.58332-2,0-.33334,9-12.75,9-10.08511,0-12.83336-8.41667-12.83336-13.21514Z" fill="#00c5f2"/><path d="M863.46188,104.31028h8.08333a0,0,0,0,1,0,0v7.95833a2.79167,2.79167,0,0,1-2.79167,2.79167h-2.5a2.79167,2.79167,0,0,1-2.79167-2.79167v-7.95833A0,0,0,0,1,863.46188,104.31028Z" fill="#fff"/><path d="M884.33688,104.31028h8.08333a0,0,0,0,1,0,0v5.60123a2.79167,2.79167,0,0,1-2.79167,2.79167h-2.5a2.79167,2.79167,0,0,1-2.79167-2.79167v-5.60123A0,0,0,0,1,884.33688,104.31028Z" fill="#fff"/><polygon points="900.712 129.227 853.379 147.227 853.379 161.227 877.045 167.394 853.379 176.144 853.379 190.394 900.712 209.56 900.712 190.56 881.177 181.909 900.712 176.81 900.712 162.227 881.177 156.174 900.712 148.394 900.712 129.227" fill="#00c5f2"/><polygon points="852.379 214.394 852.379 233.283 887.879 232.829 887.85 243.56 901.212 243.56 901.212 211.894 887.434 206.06 887.434 214.222 852.379 214.394" fill="#00c5f2"/><path d="M848.26744,127.19313c0,5.75449,10.22851,12.30063,16.02777,11.36716a9.20894,9.20894,0,0,0,3.91669-1.66669" fill="#fff"/></g></g></svg>